<?xml version="1.0" standalone="no"?>
<!DOCTYPE svg PUBLIC "-//W3C//DTD SVG 20010904//EN"
 "http://www.w3.org/TR/2001/REC-SVG-20010904/DTD/svg10.dtd">
<svg version="1.0" xmlns="http://www.w3.org/2000/svg"
 width="512.000000pt" height="512.000000pt" viewBox="0 0 512.000000 512.000000"
 preserveAspectRatio="xMidYMid meet">
<metadata>
Created by potrace 1.11, written by Peter Selinger 2001-2013
</metadata>
<g transform="translate(0.000000,512.000000) scale(0.100000,-0.100000)"
fill="#000000" stroke="none">
<path d="M1680 4878 c-75 -7 -118 -14 -220 -34 -192 -39 -457 -151 -630 -269
-153 -103 -278 -217 -398 -360 -236 -281 -371 -599 -421 -990 -10 -72 -7 -410
3 -455 4 -14 8 -45 11 -70 3 -25 7 -52 9 -60 4 -22 17 -83 20 -100 17 -87 78
-284 123 -395 59 -146 109 -243 205 -398 83 -132 120 -220 136 -322 6 -33 10
-292 10 -577 0 -284 3 -529 7 -545 7 -32 44 -63 83 -69 36 -6 89 28 104 67
l13 31 730 -1 c402 0 747 0 768 -1 29 0 37 -4 37 -18 0 -20 31 -52 68 -71 31
-16 74 -6 103 25 23 25 24 31 29 252 6 255 10 272 77 313 36 22 47 23 248 25
266 3 326 16 446 95 118 79 209 219 232 356 7 40 12 165 12 289 l-1 219 247 5
c243 5 248 5 273 29 47 44 45 52 -65 441 -43 155 -67 245 -65 248 2 1 45 -21
97 -49 52 -28 137 -74 189 -101 52 -28 100 -53 105 -58 6 -4 60 -33 120 -65
61 -32 142 -75 181 -96 39 -22 84 -39 98 -39 30 0 82 24 88 40 2 6 43 -11 91
-36 85 -46 87 -48 81 -78 -8 -43 10 -82 45 -101 62 -31 121 -10 141 51 20 60
-5 108 -65 124 -20 6 -20 13 -20 485 l0 480 21 3 c12 2 32 14 45 28 22 23 24
35 27 142 3 135 -11 174 -67 187 l-31 7 0 274 0 275 35 20 c83 50 84 150 1
184 -38 16 -62 12 -120 -21 -22 -13 -54 -30 -71 -38 -16 -8 -68 -36 -115 -61
-47 -26 -125 -68 -175 -95 -49 -26 -115 -61 -145 -78 -30 -16 -82 -44 -115
-62 -33 -18 -87 -47 -120 -65 -33 -18 -105 -56 -160 -85 -55 -29 -113 -61
-130 -70 -16 -10 -75 -41 -129 -70 -94 -50 -100 -52 -113 -34 -7 10 -13 24
-13 32 0 25 -90 245 -132 322 -100 184 -188 302 -342 456 -295 294 -667 474
-1091 529 -78 11 -311 12 -405 3z"/>
</g>
</svg>
